<?xml version="1.0" encoding="UTF-8"?>
<svg id="Layer_1" data-name="Layer 1" xmlns="http://www.w3.org/2000/svg" viewBox="0 0 297.73 279.67">
  <path d="M186.07,10.48l68.63,118.88c3.74,6.48,3.74,14.47,0,20.96l-68.63,118.88c-3.74,6.48-10.66,10.48-18.15,10.48h40.22c7.49,0,14.4-3.99,18.15-10.48l68.63-118.88c3.74-6.48,3.74-14.47,0-20.96L226.29,10.48C222.55,3.99,215.63,0,208.14,0h-40.22C175.41,0,182.33,3.99,186.07,10.48Z" style="fill: #394259;"/>
  <path d="M186.07,10.48l3.06,5.3c5.2,.08,10.6,.5,16.11,1.31,10.97,1.61,21.07,4.55,29.71,8.38l-8.65-14.99c-3.74-6.48-10.66-10.48-18.15-10.48h-40.22c7.49,0,14.4,3.99,18.15,10.48Z" style="fill: #2b364b;"/>
  <path d="M108.64,10.48l68.63,118.88c3.74,6.48,3.74,14.47,0,20.96l-68.63,118.88c-3.74,6.48-10.66,10.48-18.15,10.48h40.22c7.49,0,14.4-3.99,18.15-10.48l68.63-118.88c3.74-6.48,3.74-14.47,0-20.96L148.86,10.48C145.12,3.99,138.2,0,130.72,0h-40.22C97.98,0,104.9,3.99,108.64,10.48Z" style="fill: #394259;"/>
  <path d="M111.66,269.19L43.03,150.31c-3.74-6.48-3.74-14.47,0-20.96L111.66,10.48C115.41,3.99,122.32,0,129.81,0h-40.22C82.1,0,75.18,3.99,71.44,10.48L2.81,129.36c-3.74,6.48-3.74,14.47,0,20.96l68.63,118.88c3.74,6.48,10.66,10.48,18.15,10.48h40.22c-7.49,0-14.4-3.99-18.15-10.48Z" style="fill: #425e92;"/>
  <path d="M151.32,269.19l-68.63-118.88c-3.74-6.48-3.74-14.47,0-20.96L151.32,10.48C155.06,3.99,161.98,0,169.46,0h-40.22C121.76,0,114.84,3.99,111.09,10.48L42.46,129.36c-3.74,6.48-3.74,14.47,0,20.96l68.63,118.88c3.74,6.48,10.66,10.48,18.15,10.48h40.22c-7.49,0-14.4-3.99-18.15-10.48Z" style="fill: #3a75b9;"/>
  <path d="M191.74,269.19l-68.63-118.88c-3.74-6.48-3.74-14.47,0-20.96L191.74,10.48C195.48,3.99,202.4,0,209.88,0h-40.22C162.18,0,155.26,3.99,151.51,10.48l-68.63,118.88c-3.74,6.48-3.74,14.47,0,20.96l68.63,118.88c3.74,6.48,10.66,10.48,18.15,10.48h40.22c-7.49,0-14.4-3.99-18.15-10.48Z" style="fill: #75c5c8;"/>
</svg>